{
	"asset":{
		"generator":"Khronos glTF Blender I/O v4.0.44",
		"version":"2.0"
	},
	"scene":0,
	"scenes":[
		{
			"name":"Scene",
			"nodes":[
				0,
				1,
				2,
				3,
				4,
				5,
				6
			]
		}
	],
	"nodes":[
		{
			"mesh":0,
			"name":"Cube.001",
			"rotation":[
				0.9178692102432251,
				0.13525661826133728,
				-3.060815288336016e-05,
				0.3731245994567871
			],
			"scale":[
				0.8217233419418335,
				3.97930645942688,
				3.8573269844055176
			],
			"translation":[
				0,
				5.608701229095459,
				0
			]
		},
		{
			"mesh":1,
			"name":"Cube.002",
			"rotation":[
				0.9178692102432251,
				0.13525661826133728,
				-3.060815288336016e-05,
				0.3731245994567871
			],
			"scale":[
				0.8233885169029236,
				3.933154344558716,
				3.944687604904175
			],
			"translation":[
				0,
				5.608701229095459,
				0
			]
		},
		{
			"mesh":2,
			"name":"Cube.003",
			"rotation":[
				0.9178691506385803,
				0.13525661826133728,
				-3.0608149245381355e-05,
				0.3731245994567871
			],
			"scale":[
				0.8141845464706421,
				3.9793057441711426,
				3.8573269844055176
			],
			"translation":[
				0,
				5.608701229095459,
				0
			]
		},
		{
			"mesh":3,
			"name":"Cube.004",
			"rotation":[
				0.9178692102432251,
				0.13525661826133728,
				-3.060612652916461e-05,
				0.3731245994567871
			],
			"scale":[
				0.7979859113693237,
				3.9945154190063477,
				3.949730157852173
			],
			"translation":[
				0,
				5.608701229095459,
				0
			]
		},
		{
			"mesh":4,
			"name":"Cube.005",
			"rotation":[
				0.9178692102432251,
				0.1352566033601761,
				-3.060612652916461e-05,
				0.3731245994567871
			],
			"scale":[
				0.8166576623916626,
				3.9192047119140625,
				3.933154344558716
			],
			"translation":[
				0,
				5.608701229095459,
				0
			]
		},
		{
			"mesh":5,
			"name":"Cube.006",
			"rotation":[
				0.9178692102432251,
				0.13525661826133728,
				-3.06020665448159e-05,
				0.3731245994567871
			],
			"scale":[
				0.7980610132217407,
				3.9945154190063477,
				3.9331541061401367
			],
			"translation":[
				0,
				5.608701229095459,
				0
			]
		},
		{
			"mesh":6,
			"name":"Cube.007",
			"rotation":[
				0.9178692102432251,
				0.1352566033601761,
				-3.060612652916461e-05,
				0.3731245994567871
			],
			"scale":[
				0.7955518960952759,
				3.8937478065490723,
				3.933154344558716
			],
			"translation":[
				0,
				5.608701229095459,
				0
			]
		}
	],
	"materials":[
		{
			"doubleSided":true,
			"name":"Material",
			"pbrMetallicRoughness":{
				"baseColorFactor":[
					0.7067657113075256,
					0.6253084540367126,
					0.09063808619976044,
					1
				],
				"metallicFactor":0,
				"roughnessFactor":0.5
			}
		},
		{
			"doubleSided":true,
			"name":"Material.001",
			"pbrMetallicRoughness":{
				"baseColorFactor":[
					0.3800011873245239,
					0.6360953450202942,
					0.09373440593481064,
					1
				],
				"metallicFactor":0,
				"roughnessFactor":0.6460673809051514
			}
		}
	],
	"meshes":[
		{
			"name":"Cube.007",
			"primitives":[
				{
					"attributes":{
						"POSITION":0,
						"NORMAL":1,
						"TEXCOORD_0":2
					},
					"indices":3,
					"material":0
				}
			]
		},
		{
			"name":"Cube.008",
			"primitives":[
				{
					"attributes":{
						"POSITION":4,
						"NORMAL":5,
						"TEXCOORD_0":6
					},
					"indices":7,
					"material":0
				}
			]
		},
		{
			"name":"Cube.009",
			"primitives":[
				{
					"attributes":{
						"POSITION":8,
						"NORMAL":9,
						"TEXCOORD_0":10
					},
					"indices":11,
					"material":0
				}
			]
		},
		{
			"name":"Cube.010",
			"primitives":[
				{
					"attributes":{
						"POSITION":12,
						"NORMAL":13,
						"TEXCOORD_0":14
					},
					"indices":15,
					"material":1
				}
			]
		},
		{
			"name":"Cube.011",
			"primitives":[
				{
					"attributes":{
						"POSITION":16,
						"NORMAL":17,
						"TEXCOORD_0":18
					},
					"indices":19,
					"material":1
				}
			]
		},
		{
			"name":"Cube.012",
			"primitives":[
				{
					"attributes":{
						"POSITION":20,
						"NORMAL":21,
						"TEXCOORD_0":22
					},
					"indices":23,
					"material":1
				}
			]
		},
		{
			"name":"Cube.013",
			"primitives":[
				{
					"attributes":{
						"POSITION":24,
						"NORMAL":25,
						"TEXCOORD_0":26
					},
					"indices":27,
					"material":1
				}
			]
		}
	],
	"accessors":[
		{
			"bufferView":0,
			"componentType":5126,
			"count":18344,
			"max":[
				2.1013190746307373,
				1.0000001192092896,
				1.0700165033340454
			],
			"min":[
				-2.4831981658935547,
				0.3333333134651184,
				-1.0700165033340454
			],
			"type":"VEC3"
		},
		{
			"bufferView":1,
			"componentType":5126,
			"count":18344,
			"type":"VEC3"
		},
		{
			"bufferView":2,
			"componentType":5126,
			"count":18344,
			"type":"VEC2"
		},
		{
			"bufferView":3,
			"componentType":5123,
			"count":27648,
			"type":"SCALAR"
		},
		{
			"bufferView":4,
			"componentType":5126,
			"count":16188,
			"max":[
				1.9919617176055908,
				0.3333333730697632,
				1.0287501811981201
			],
			"min":[
				-2.409130096435547,
				-0.3333333730697632,
				-1.0287500619888306
			],
			"type":"VEC3"
		},
		{
			"bufferView":5,
			"componentType":5126,
			"count":16188,
			"type":"VEC3"
		},
		{
			"bufferView":6,
			"componentType":5126,
			"count":16188,
			"type":"VEC2"
		},
		{
			"bufferView":7,
			"componentType":5123,
			"count":27648,
			"type":"SCALAR"
		},
		{
			"bufferView":8,
			"componentType":5126,
			"count":32866,
			"max":[
				2.125842332839966,
				-0.3333333134651184,
				1.0795999765396118
			],
			"min":[
				-2.5807971954345703,
				-2.2250356674194336,
				-2.969465494155884
			],
			"type":"VEC3"
		},
		{
			"bufferView":9,
			"componentType":5126,
			"count":32866,
			"type":"VEC3"
		},
		{
			"bufferView":10,
			"componentType":5126,
			"count":32866,
			"type":"VEC2"
		},
		{
			"bufferView":11,
			"componentType":5123,
			"count":49920,
			"type":"SCALAR"
		},
		{
			"bufferView":12,
			"componentType":5126,
			"count":42723,
			"max":[
				2.0620498657226562,
				1.0300002098083496,
				1.0002940893173218
			],
			"min":[
				-2.460583448410034,
				-1.0300003290176392,
				0.3333333134651184
			],
			"type":"VEC3"
		},
		{
			"bufferView":13,
			"componentType":5126,
			"count":42723,
			"type":"VEC3"
		},
		{
			"bufferView":14,
			"componentType":5126,
			"count":42723,
			"type":"VEC2"
		},
		{
			"bufferView":15,
			"componentType":5123,
			"count":69888,
			"type":"SCALAR"
		},
		{
			"bufferView":16,
			"componentType":5126,
			"count":13840,
			"max":[
				2.1583309173583984,
				1.028749942779541,
				0.3333333730697632
			],
			"min":[
				-2.580824375152588,
				-1.0287500619888306,
				-0.3333333730697632
			],
			"type":"VEC3"
		},
		{
			"bufferView":17,
			"componentType":5126,
			"count":13840,
			"type":"VEC3"
		},
		{
			"bufferView":18,
			"componentType":5126,
			"count":13840,
			"type":"VEC2"
		},
		{
			"bufferView":19,
			"componentType":5123,
			"count":21504,
			"type":"SCALAR"
		},
		{
			"bufferView":20,
			"componentType":5126,
			"count":30628,
			"max":[
				2.004953145980835,
				1.0300003290176392,
				-0.3333333134651184
			],
			"min":[
				-2.4603190422058105,
				-1.0300003290176392,
				-1.0000001192092896
			],
			"type":"VEC3"
		},
		{
			"bufferView":21,
			"componentType":5126,
			"count":30628,
			"type":"VEC3"
		},
		{
			"bufferView":22,
			"componentType":5126,
			"count":30628,
			"type":"VEC2"
		},
		{
			"bufferView":23,
			"componentType":5123,
			"count":50688,
			"type":"SCALAR"
		},
		{
			"bufferView":24,
			"componentType":5126,
			"count":80894,
			"max":[
				1.0242141485214233,
				1.054365634918213,
				1.0543655157089233
			],
			"min":[
				-0.9904192686080933,
				-2.81001877784729,
				-1.9797533750534058
			],
			"type":"VEC3"
		},
		{
			"bufferView":25,
			"componentType":5126,
			"count":80894,
			"type":"VEC3"
		},
		{
			"bufferView":26,
			"componentType":5126,
			"count":80894,
			"type":"VEC2"
		},
		{
			"bufferView":27,
			"componentType":5125,
			"count":140544,
			"type":"SCALAR"
		}
	],
	"bufferViews":[
		{
			"buffer":0,
			"byteLength":220128,
			"byteOffset":0,
			"target":34962
		},
		{
			"buffer":0,
			"byteLength":220128,
			"byteOffset":220128,
			"target":34962
		},
		{
			"buffer":0,
			"byteLength":146752,
			"byteOffset":440256,
			"target":34962
		},
		{
			"buffer":0,
			"byteLength":55296,
			"byteOffset":587008,
			"target":34963
		},
		{
			"buffer":0,
			"byteLength":194256,
			"byteOffset":642304,
			"target":34962
		},
		{
			"buffer":0,
			"byteLength":194256,
			"byteOffset":836560,
			"target":34962
		},
		{
			"buffer":0,
			"byteLength":129504,
			"byteOffset":1030816,
			"target":34962
		},
		{
			"buffer":0,
			"byteLength":55296,
			"byteOffset":1160320,
			"target":34963
		},
		{
			"buffer":0,
			"byteLength":394392,
			"byteOffset":1215616,
			"target":34962
		},
		{
			"buffer":0,
			"byteLength":394392,
			"byteOffset":1610008,
			"target":34962
		},
		{
			"buffer":0,
			"byteLength":262928,
			"byteOffset":2004400,
			"target":34962
		},
		{
			"buffer":0,
			"byteLength":99840,
			"byteOffset":2267328,
			"target":34963
		},
		{
			"buffer":0,
			"byteLength":512676,
			"byteOffset":2367168,
			"target":34962
		},
		{
			"buffer":0,
			"byteLength":512676,
			"byteOffset":2879844,
			"target":34962
		},
		{
			"buffer":0,
			"byteLength":341784,
			"byteOffset":3392520,
			"target":34962
		},
		{
			"buffer":0,
			"byteLength":139776,
			"byteOffset":3734304,
			"target":34963
		},
		{
			"buffer":0,
			"byteLength":166080,
			"byteOffset":3874080,
			"target":34962
		},
		{
			"buffer":0,
			"byteLength":166080,
			"byteOffset":4040160,
			"target":34962
		},
		{
			"buffer":0,
			"byteLength":110720,
			"byteOffset":4206240,
			"target":34962
		},
		{
			"buffer":0,
			"byteLength":43008,
			"byteOffset":4316960,
			"target":34963
		},
		{
			"buffer":0,
			"byteLength":367536,
			"byteOffset":4359968,
			"target":34962
		},
		{
			"buffer":0,
			"byteLength":367536,
			"byteOffset":4727504,
			"target":34962
		},
		{
			"buffer":0,
			"byteLength":245024,
			"byteOffset":5095040,
			"target":34962
		},
		{
			"buffer":0,
			"byteLength":101376,
			"byteOffset":5340064,
			"target":34963
		},
		{
			"buffer":0,
			"byteLength":970728,
			"byteOffset":5441440,
			"target":34962
		},
		{
			"buffer":0,
			"byteLength":970728,
			"byteOffset":6412168,
			"target":34962
		},
		{
			"buffer":0,
			"byteLength":647152,
			"byteOffset":7382896,
			"target":34962
		},
		{
			"buffer":0,
			"byteLength":562176,
			"byteOffset":8030048,
			"target":34963
		}
	],
	"buffers":[
		{
			"byteLength":8592224,
			"uri":"Ketupat.bin"
		}
	]
}
